<?xml version="1.0" standalone="no"?>
<!DOCTYPE svg PUBLIC "-//W3C//DTD SVG 20010904//EN"
 "http://www.w3.org/TR/2001/REC-SVG-20010904/DTD/svg10.dtd">
<svg version="1.0" xmlns="http://www.w3.org/2000/svg"
 width="1000.000000pt" height="1000.000000pt" viewBox="0 0 1000.000000 1000.000000"
 preserveAspectRatio="xMidYMid meet">

<g transform="translate(0.000000,1000.000000) scale(0.100000,-0.100000)"
fill="#000000" stroke="none">
<path d="M0 5000 l0 -5000 5000 0 5000 0 0 5000 0 5000 -5000 0 -5000 0 0
-5000z m5849 2076 c372 -62 608 -187 773 -410 135 -182 205 -402 229 -720 26
-360 -42 -673 -194 -896 -50 -71 -176 -198 -260 -261 -96 -72 -245 -148 -364
-185 -48 -16 -89 -29 -91 -30 -2 -1 10 -24 27 -50 80 -131 941 -1618 941
-1625 0 -5 -202 -9 -448 -9 l-449 0 -449 808 -449 807 -257 3 -258 2 -2 -807
-3 -808 -407 -3 -408 -2 0 810 0 810 -385 0 -385 0 0 330 0 330 385 0 385 0 0
115 0 115 -382 2 -383 3 0 320 0 320 383 3 382 2 0 526 0 525 983 -4 c877 -3
993 -5 1086 -21z"/>
<path d="M4600 5790 l0 -620 558 0 c617 0 621 0 704 63 24 18 57 54 75 80 59
88 63 119 63 489 0 400 -8 446 -92 524 -86 82 -105 84 -753 84 l-555 0 0 -620z"/>
</g>
</svg>
